Source:

HD Music Video in .MP4 format. Enjoy!

General NFO
Format                           : MPEG-4
Format profile                   : Base Media / Version 2
Codec ID                         : mp42
File size                        : 44.7 MiB
Duration                         : 2mn 47s
Overall bit rate                 : 2 241 Kbps
Encoded date                     : UTC 2008-11-13 09:47:00
Tagged date                      : UTC 2008-11-13 09:47:00
gsst                             : 0
gstd                             : 167233
gssd                             : BADC20904HH1280548018204583
gshh                             :

Video
ID                               : 2
Format                           : AVC
Format/Info                      : Advanced Video Codec
Format profile                   : Main@L5.1
Format settings, CABAC           : No
Format settings, ReFrames        : 4 frames
Codec ID                         : avc1
Codec ID/Info                    : Advanced Video Coding
Duration                         : 2mn 47s
Bit rate mode                    : Variable
Bit rate                         : 2 000 Kbps
Maximum bit rate                 : 4 260 Kbps
Width                            : 1 280 pixels
Height                           : 720 pixels
Display aspect ratio             : 16:9
Frame rate mode                  : Constant
Frame rate                       : 29.970 fps
Color space                      : YUV
Chroma subsampling               : 4:2:0
Bit depth                        : 8 bits
Scan type                        : Progressive
Bits/(Pixel*Frame)               : 0.072
Stream size                      : 39.9 MiB (89%)
Title                            : (C) 2007 Google Inc. v08.13.2007.
Writing library                  : x264 core 54
Encoding settings                : cabac=0 / ref=3 / deblock=1:0:0 / analyse=0x1:0x111 / me=hex / subme=5 / brdo=0 / mixed_ref=0 / me_range=16 / chroma_me=1 / trellis=0 / 8x8dct=0 / cqm=0 / deadzone=21,11 / chroma_qp_offset=0 / threads=1 / nr=0 / decimate=1 / mbaff=0 / bframes=2 / b_pyramid=0 / b_adapt=1 / b_bias=0 / direct=1 / wpredb=1 / bime=0 / keyint=60 / keyint_min=25 / scenecut=40 / rc=2pass / bitrate=2000 / ratetol=1.0 / rceq='blurCplx^(1-qComp)' / qcomp=0.60 / qpmin=10 / qpmax=38 / qpstep=4 / cplxblur=20.0 / qblur=0.5 / ip_ratio=1.40 / pb_ratio=1.30
Encoded date                     : UTC 2008-11-13 09:47:00
Tagged date                      : UTC 2008-11-13 09:47:02

Audio
ID                               : 1
Format                           : AAC
Format/Info                      : Advanced Audio Codec
Format version                   : Version 4
Format profile                   : LC
Format settings, SBR             : No
Codec ID                         : 40
Duration                         : 2mn 47s
Bit rate mode                    : Variable
Bit rate                         : 238 Kbps
Maximum bit rate                 : 267 Kbps
Channel(s)                       : 2 channels
Channel positions                : Front: L R
Sampling rate                    : 44.1 KHz
Stream size                      : 4.75 MiB (11%)
Title                            : (C) 2007 Google Inc. v08.13.2007.
Encoded date                     : UTC 2008-11-13 09:47:00
Tagged date                      : UTC 2008-11-13 09:47:02